<svg width="91" height="91" viewBox="0 0 91 91" fill="none" xmlns="http://www.w3.org/2000/svg">
<g filter="url(#filter0_f_7_59)">
<circle cx="45.07" cy="45.07" r="30.07" fill="white" fill-opacity="0.2"/>
</g>
<path d="M57.9447 36.1137C57.6176 35.584 57.0807 35.1961 56.4514 35.0379C55.8209 34.8797 55.1505 34.9629 54.5861 35.2688C53.6483 35.7761 52.5177 35.7756 51.5804 35.2673L50.6092 34.7405C49.73 34.2638 49.1824 33.3439 49.1824 32.3437C49.1824 31.0687 48.085 30 46.7278 30H43.2719C41.9148 30 40.8173 31.0687 40.8173 32.3437C40.8173 33.3439 40.2699 34.2639 39.3908 34.7411L38.4207 35.2676C37.4835 35.7763 36.3525 35.7768 35.4149 35.2688C34.8505 34.9629 34.1788 34.8797 33.5483 35.0379C32.919 35.1961 32.3822 35.584 32.055 36.1137L30.3295 38.9215C30.0037 39.4512 29.915 40.0817 30.0836 40.6723C30.2521 41.2641 30.6641 41.768 31.2285 42.0738C32.1518 42.575 32.7269 43.5413 32.7272 44.5919L32.7275 45.4081C32.7278 46.4586 32.153 47.425 31.2297 47.9262C30.6654 48.2332 30.2521 48.7359 30.0836 49.3266C29.915 49.9184 30.0037 50.5488 30.3295 51.0785L32.0575 53.8863C32.3834 54.416 32.9203 54.8039 33.5495 54.9621C34.1801 55.1203 34.8505 55.0371 35.4161 54.7312C36.3539 54.2239 37.4845 54.2245 38.4218 54.7328L39.3895 55.2577C40.2693 55.7348 40.8173 56.6554 40.8173 57.6562C40.8173 58.9312 41.9147 60 43.2719 60H46.7268C48.0852 60 49.1815 58.9312 49.1815 57.6562C49.1822 56.6553 49.7306 55.735 50.6106 55.2579L51.5794 54.7326C52.5167 54.2244 53.6473 54.2239 54.5851 54.7312C55.1507 55.0371 55.8212 55.1203 56.4504 54.9621C57.081 54.8039 57.6178 54.416 57.9437 53.8863L59.6705 51.0785C59.9963 50.5488 60.085 49.9183 59.9164 49.3277C59.7479 48.7359 59.3359 48.232 58.7715 47.9262C57.8482 47.425 57.2732 46.4587 57.2732 45.4081V44.5918C57.2732 43.5413 57.8482 42.575 58.7715 42.0738C59.3359 41.7668 59.7479 41.264 59.9164 40.6734C60.085 40.0816 59.9963 39.4511 59.6705 38.9215L57.9447 36.1137Z" stroke="white" stroke-width="2" stroke-linecap="round" stroke-linejoin="round"/>
<path d="M50 45C50 47.7614 47.7614 50 45 50C42.2386 50 40 47.7614 40 45C40 42.2386 42.2386 40 45 40C47.7614 40 50 42.2386 50 45Z" stroke="white" stroke-width="2" stroke-linecap="round" stroke-linejoin="round"/>
<defs>
<filter id="filter0_f_7_59" x="0" y="0" width="90.14" height="90.14" filterUnits="userSpaceOnUse" color-interpolation-filters="sRGB">
<feFlood flood-opacity="0" result="BackgroundImageFix"/>
<feBlend mode="normal" in="SourceGraphic" in2="BackgroundImageFix" result="shape"/>
<feGaussianBlur stdDeviation="7.5" result="effect1_foregroundBlur_7_59"/>
</filter>
</defs>
</svg>
